solid OpenSCAD_Model
  facet normal -1 0 0
    outer loop
      vertex -20 -10 15
      vertex -20 -10 33
      vertex -20 -7 33
    endloop
  endfacet
  facet normal -1 -0 0
    outer loop
      vertex -20 -10 15
      vertex -20 -7 33
      vertex -20 -7 15
    endloop
  endfacet
  facet normal -1.33227e-017 0 0
    outer loop
      vertex -20 -10 15
      vertex -20 -7 15
      vertex -20 10 15
    endloop
  endfacet
  facet normal -1 -0 0
    outer loop
      vertex -20 7 12
      vertex -20 10 15
      vertex -20 10 -1.22461e-015
    endloop
  endfacet
  facet normal -1 0 0
    outer loop
      vertex -20 7 12
      vertex -20 10 -1.22461e-015
      vertex -20 7 -8.57224e-016
    endloop
  endfacet
  facet normal -1 0 0
    outer loop
      vertex -20 -10 15
      vertex -20 10 15
      vertex -20 7 12
    endloop
  endfacet
  facet normal -1 -0 -0
    outer loop
      vertex -20 -7 12
      vertex -20 -10 15
      vertex -20 7 12
    endloop
  endfacet
  facet normal -1 0 0
    outer loop
      vertex -20 -10 15
      vertex -20 -7 12
      vertex -20 -7 8.57224e-016
    endloop
  endfacet
  facet normal -1 0 0
    outer loop
      vertex -20 -10 15
      vertex -20 -7 8.57224e-016
      vertex -20 -10 1.22461e-015
    endloop
  endfacet
  facet normal 0 -1 1.97373e-016
    outer loop
      vertex -20 -10 33
      vertex -20 -10 15
      vertex -17.5 -10 15
    endloop
  endfacet
  facet normal -7.10543e-016 -1 0
    outer loop
      vertex -17.5 -10 23
      vertex -20 -10 33
      vertex -17.5 -10 18
    endloop
  endfacet
  facet normal 2.84217e-015 -1 5.92119e-016
    outer loop
      vertex -17.5 -10 18
      vertex -20 -10 33
      vertex -17.5 -10 15
    endloop
  endfacet
  facet normal 0 -1 5.92119e-016
    outer loop
      vertex 20 -10 15
      vertex 17.5 -10 18
      vertex 17.5 -10 15
    endloop
  endfacet
  facet normal -4.73695e-016 -1 1.97373e-016
    outer loop
      vertex 20 -10 33
      vertex 17.5 -10 18
      vertex 20 -10 15
    endloop
  endfacet
  facet normal 0 -1 0
    outer loop
      vertex 17.5 -10 18
      vertex -17.5 -10 23
      vertex -17.5 -10 18
    endloop
  endfacet
  facet normal 7.10543e-016 -1 3.55271e-016
    outer loop
      vertex -17.5 -10 28
      vertex -20 -10 33
      vertex -17.5 -10 23
    endloop
  endfacet
  facet normal 0 -1 3.55271e-016
    outer loop
      vertex -1.25 -10 28
      vertex -1.25 -10 23
      vertex 1.25 -10 23
    endloop
  endfacet
  facet normal 0 -1 0
    outer loop
      vertex 20 -10 33
      vertex -20 -10 33
      vertex -1.25 -10 28
    endloop
  endfacet
  facet normal 0 -1 0
    outer loop
      vertex 17.5 -10 18
      vertex -1.25 -10 23
      vertex -17.5 -10 23
    endloop
  endfacet
  facet normal 0 -1 3.55271e-016
    outer loop
      vertex 1.25 -10 23
      vertex 1.25 -10 28
      vertex -1.25 -10 28
    endloop
  endfacet
  facet normal 0 -1 0
    outer loop
      vertex 1.25 -10 23
      vertex -1.25 -10 23
      vertex 17.5 -10 18
    endloop
  endfacet
  facet normal 0 -1 0
    outer loop
      vertex 20 -10 33
      vertex -1.25 -10 28
      vertex 1.25 -10 28
    endloop
  endfacet
  facet normal 0 -1 0
    outer loop
      vertex 20 -10 33
      vertex 1.25 -10 28
      vertex 17.5 -10 28
    endloop
  endfacet
  facet normal 7.10543e-016 -1 0
    outer loop
      vertex 20 -10 33
      vertex 17.5 -10 23
      vertex 17.5 -10 18
    endloop
  endfacet
  facet normal -7.10543e-016 -1 3.55271e-016
    outer loop
      vertex 20 -10 33
      vertex 17.5 -10 28
      vertex 17.5 -10 23
    endloop
  endfacet
  facet normal 0 -1 0
    outer loop
      vertex 17.5 -10 23
      vertex 1.25 -10 23
      vertex 17.5 -10 18
    endloop
  endfacet
  facet normal -0 -1 -0
    outer loop
      vertex -17.5 -10 28
      vertex -1.25 -10 28
      vertex -20 -10 33
    endloop
  endfacet
  facet normal 1 -0 0
    outer loop
      vertex -17.5 -7 15
      vertex -17.5 -10 18
      vertex -17.5 -10 15
    endloop
  endfacet
  facet normal 1 0 0
    outer loop
      vertex -17.5 -7 18
      vertex -17.5 -10 18
      vertex -17.5 -7 15
    endloop
  endfacet
  facet normal 0 -1 1.18424e-016
    outer loop
      vertex -20 -10 15
      vertex -20 -10 1.22461e-015
      vertex -17 -10 1.22461e-015
    endloop
  endfacet
  facet normal 0 -1 0
    outer loop
      vertex 17 -10 12
      vertex -20 -10 15
      vertex -17 -10 12
    endloop
  endfacet
  facet normal 1.4803e-016 -1 1.4803e-016
    outer loop
      vertex -17 -10 12
      vertex -20 -10 15
      vertex -17 -10 1.22461e-015
    endloop
  endfacet
  facet normal 0 -1 0
    outer loop
      vertex 17.5 -10 15
      vertex -17.5 -10 15
      vertex 17 -10 12
    endloop
  endfacet
  facet normal 0 -1 1.4803e-016
    outer loop
      vertex 20 -10 1.22461e-015
      vertex 17 -10 12
      vertex 17 -10 1.22461e-015
    endloop
  endfacet
  facet normal -1.18424e-016 -1 1.18424e-016
    outer loop
      vertex 20 -10 15
      vertex 17 -10 12
      vertex 20 -10 1.22461e-015
    endloop
  endfacet
  facet normal 0 -1 0
    outer loop
      vertex -17.5 -10 15
      vertex -20 -10 15
      vertex 17 -10 12
    endloop
  endfacet
  facet normal 0 -1 0
    outer loop
      vertex 20 -10 15
      vertex 17.5 -10 15
      vertex 17 -10 12
    endloop
  endfacet
  facet normal -0 -1.22461e-016 -1
    outer loop
      vertex -20 -10 1.22461e-015
      vertex -20 -7 8.57224e-016
      vertex -17 -10 1.22461e-015
    endloop
  endfacet
  facet normal 0 -1.22461e-016 -1
    outer loop
      vertex -17 -10 1.22461e-015
      vertex -20 -7 8.57224e-016
      vertex -17 -7 8.57224e-016
    endloop
  endfacet
  facet normal 0 1 -1.4803e-016
    outer loop
      vertex -20 -7 8.57224e-016
      vertex -20 -7 12
      vertex -17 -7 8.57224e-016
    endloop
  endfacet
  facet normal 0 1 -1.4803e-016
    outer loop
      vertex -17 -7 8.57224e-016
      vertex -20 -7 12
      vertex -17 -7 12
    endloop
  endfacet
  facet normal -0 -1.26883e-016 -1
    outer loop
      vertex -20 -7 12
      vertex -20 7 12
      vertex -17 -7 12
    endloop
  endfacet
  facet normal 0 -1.26883e-016 -1
    outer loop
      vertex -17 -7 12
      vertex -20 7 12
      vertex -17 7 12
    endloop
  endfacet
  facet normal 0 -0 -1
    outer loop
      vertex -17 7 12
      vertex -17 10 12
      vertex 17 10 12
    endloop
  endfacet
  facet normal 1.11955e-017 -1.26883e-016 -1
    outer loop
      vertex -17 7 12
      vertex 17 10 12
      vertex -17 -7 12
    endloop
  endfacet
  facet normal -5.22458e-017 0 -1
    outer loop
      vertex -17 -7 12
      vertex 17 10 12
      vertex 17 7 12
    endloop
  endfacet
  facet normal 0 -1.26883e-016 -1
    outer loop
      vertex -17 -7 12
      vertex 17 7 12
      vertex 20 7 12
    endloop
  endfacet
  facet normal -0 -1.26883e-016 -1
    outer loop
      vertex 17 -7 12
      vertex 20 7 12
      vertex 20 -7 12
    endloop
  endfacet
  facet normal -0 -1.26883e-016 -1
    outer loop
      vertex -17 -7 12
      vertex 20 7 12
      vertex 17 -7 12
    endloop
  endfacet
  facet normal 0 0 -1
    outer loop
      vertex 17 -7 12
      vertex 17 -10 12
      vertex -17 -7 12
    endloop
  endfacet
  facet normal 0 0 -1
    outer loop
      vertex -17 -7 12
      vertex 17 -10 12
      vertex -17 -10 12
    endloop
  endfacet
  facet normal 0 -1 1.4803e-016
    outer loop
      vertex -20 7 12
      vertex -20 7 -8.57224e-016
      vertex -17 7 -8.57224e-016
    endloop
  endfacet
  facet normal 0 -1 1.4803e-016
    outer loop
      vertex -17 7 12
      vertex -20 7 12
      vertex -17 7 -8.57224e-016
    endloop
  endfacet
  facet normal -0 -1.22461e-016 -1
    outer loop
      vertex -20 7 -8.57224e-016
      vertex -20 10 -1.22461e-015
      vertex -17 7 -8.57224e-016
    endloop
  endfacet
  facet normal 0 -1.22461e-016 -1
    outer loop
      vertex -17 7 -8.57224e-016
      vertex -20 10 -1.22461e-015
      vertex -17 10 -1.22461e-015
    endloop
  endfacet
  facet normal 0 1 -2.36848e-016
    outer loop
      vertex -20 10 -1.22461e-015
      vertex -20 10 15
      vertex -17 10 -1.22461e-015
    endloop
  endfacet
  facet normal 0 1 -5.92119e-016
    outer loop
      vertex -17 10 12
      vertex -20 10 15
      vertex 20 10 15
    endloop
  endfacet
  facet normal 0 1 -2.36848e-016
    outer loop
      vertex 17 10 -1.22461e-015
      vertex 20 10 15
      vertex 20 10 -1.22461e-015
    endloop
  endfacet
  facet normal -4.44089e-016 1 -1.4803e-016
    outer loop
      vertex 17 10 12
      vertex 20 10 15
      vertex 17 10 -1.22461e-015
    endloop
  endfacet
  facet normal 4.44089e-016 1 -1.4803e-016
    outer loop
      vertex -17 10 -1.22461e-015
      vertex -20 10 15
      vertex -17 10 12
    endloop
  endfacet
  facet normal 0 1 -5.92119e-016
    outer loop
      vertex -17 10 12
      vertex 20 10 15
      vertex 17 10 12
    endloop
  endfacet
  facet normal 0 1.04492e-016 1
    outer loop
      vertex 17.5 -7 15
      vertex 20 -7 15
      vertex -20 10 15
    endloop
  endfacet
  facet normal 0 1.04492e-016 1
    outer loop
      vertex -20 10 15
      vertex -20 -7 15
      vertex -17.5 -7 15
    endloop
  endfacet
  facet normal 9.07076e-018 1.05826e-016 1
    outer loop
      vertex 17.5 -10 15
      vertex -20 10 15
      vertex -17.5 -7 15
    endloop
  endfacet
  facet normal 0 0 1
    outer loop
      vertex -17.5 -10 15
      vertex 17.5 -10 15
      vertex -17.5 -7 15
    endloop
  endfacet
  facet normal -4.73695e-017 0 1
    outer loop
      vertex 17.5 -10 15
      vertex 17.5 -7 15
      vertex -20 10 15
    endloop
  endfacet
  facet normal 0 1.04492e-016 1
    outer loop
      vertex 20 -7 15
      vertex 20 10 15
      vertex -20 10 15
    endloop
  endfacet
  facet normal 0 1 -1.97373e-016
    outer loop
      vertex -20 -7 15
      vertex -20 -7 33
      vertex -17.5 -7 15
    endloop
  endfacet
  facet normal 0 1 -1.77636e-016
    outer loop
      vertex -17.5 -7 28
      vertex -20 -7 33
      vertex 20 -7 33
    endloop
  endfacet
  facet normal 0 1 -1.97373e-016
    outer loop
      vertex 17.5 -7 15
      vertex 20 -7 33
      vertex 20 -7 15
    endloop
  endfacet
  facet normal 7.10543e-016 1 -2.96059e-016
    outer loop
      vertex 17.5 -7 18
      vertex 20 -7 33
      vertex 17.5 -7 15
    endloop
  endfacet
  facet normal 0 1 -1.77636e-016
    outer loop
      vertex 17.5 -7 23
      vertex 20 -7 33
      vertex 17.5 -7 18
    endloop
  endfacet
  facet normal -7.10543e-016 1 -2.96059e-016
    outer loop
      vertex -17.5 -7 15
      vertex -20 -7 33
      vertex -17.5 -7 18
    endloop
  endfacet
  facet normal 0 1 -1.77636e-016
    outer loop
      vertex -1.25 -7 28
      vertex 1.25 -7 28
      vertex -1.25 -7 23
    endloop
  endfacet
  facet normal 0 1 -1.77636e-016
    outer loop
      vertex -17.5 -7 18
      vertex -20 -7 33
      vertex -17.5 -7 23
    endloop
  endfacet
  facet normal 0 1 -1.77636e-016
    outer loop
      vertex -1.25 -7 28
      vertex -17.5 -7 28
      vertex 20 -7 33
    endloop
  endfacet
  facet normal 0 1 -1.77636e-016
    outer loop
      vertex -20 -7 33
      vertex -17.5 -7 28
      vertex -17.5 -7 23
    endloop
  endfacet
  facet normal 0 1 -1.77636e-016
    outer loop
      vertex 1.25 -7 28
      vertex -1.25 -7 28
      vertex 20 -7 33
    endloop
  endfacet
  facet normal 0 1 -1.77636e-016
    outer loop
      vertex -1.25 -7 23
      vertex -17.5 -7 18
      vertex -17.5 -7 23
    endloop
  endfacet
  facet normal 0 1 -1.77636e-016
    outer loop
      vertex 1.25 -7 23
      vertex -1.25 -7 23
      vertex 1.25 -7 28
    endloop
  endfacet
  facet normal 0 1 -1.77636e-016
    outer loop
      vertex 1.25 -7 28
      vertex 20 -7 33
      vertex 17.5 -7 28
    endloop
  endfacet
  facet normal 0 1 -1.77636e-016
    outer loop
      vertex 17.5 -7 28
      vertex 20 -7 33
      vertex 17.5 -7 23
    endloop
  endfacet
  facet normal 0 1 -1.77636e-016
    outer loop
      vertex 1.25 -7 23
      vertex 17.5 -7 23
      vertex 17.5 -7 18
    endloop
  endfacet
  facet normal 0 1 -1.77636e-016
    outer loop
      vertex -17.5 -7 18
      vertex -1.25 -7 23
      vertex 1.25 -7 23
    endloop
  endfacet
  facet normal 0 1 -1.77636e-016
    outer loop
      vertex -17.5 -7 18
      vertex 1.25 -7 23
      vertex 17.5 -7 18
    endloop
  endfacet
  facet normal 0 -0 1
    outer loop
      vertex -20 -7 33
      vertex -20 -10 33
      vertex 20 -10 33
    endloop
  endfacet
  facet normal 0 0 1
    outer loop
      vertex 20 -7 33
      vertex -20 -7 33
      vertex 20 -10 33
    endloop
  endfacet
  facet normal 1 0 0
    outer loop
      vertex 20 -7 8.57224e-016
      vertex 20 -10 33
      vertex 20 -10 15
    endloop
  endfacet
  facet normal 1 0 0
    outer loop
      vertex 20 -10 1.22461e-015
      vertex 20 -7 8.57224e-016
      vertex 20 -10 15
    endloop
  endfacet
  facet normal 1 0 0
    outer loop
      vertex 20 -7 8.57224e-016
      vertex 20 -7 12
      vertex 20 -10 33
    endloop
  endfacet
  facet normal 1 0 0
    outer loop
      vertex 20 -7 15
      vertex 20 -7 33
      vertex 20 -10 33
    endloop
  endfacet
  facet normal 1 0 0
    outer loop
      vertex 20 7 -8.57224e-016
      vertex 20 10 -1.22461e-015
      vertex 20 7 12
    endloop
  endfacet
  facet normal 1 0 0
    outer loop
      vertex 20 10 -1.22461e-015
      vertex 20 10 15
      vertex 20 7 12
    endloop
  endfacet
  facet normal 1 0 0
    outer loop
      vertex 20 -7 12
      vertex 20 -7 15
      vertex 20 -10 33
    endloop
  endfacet
  facet normal 1 0 0
    outer loop
      vertex 20 -7 12
      vertex 20 7 12
      vertex 20 -7 15
    endloop
  endfacet
  facet normal 1 -0 0
    outer loop
      vertex 20 10 15
      vertex 20 -7 15
      vertex 20 7 12
    endloop
  endfacet
  facet normal -1 0 -0
    outer loop
      vertex 17.5 -10 15
      vertex 17.5 -10 18
      vertex 17.5 -7 18
    endloop
  endfacet
  facet normal -1 -0 0
    outer loop
      vertex 17.5 -10 15
      vertex 17.5 -7 18
      vertex 17.5 -7 15
    endloop
  endfacet
  facet normal -0 -0 -1
    outer loop
      vertex -17.5 -10 18
      vertex -17.5 -7 18
      vertex 17.5 -10 18
    endloop
  endfacet
  facet normal 0 0 -1
    outer loop
      vertex 17.5 -10 18
      vertex -17.5 -7 18
      vertex 17.5 -7 18
    endloop
  endfacet
  facet normal 0 -0 1
    outer loop
      vertex -17.5 -7 23
      vertex -17.5 -10 23
      vertex -1.25 -10 23
    endloop
  endfacet
  facet normal 0 0 1
    outer loop
      vertex -1.25 -7 23
      vertex -17.5 -7 23
      vertex -1.25 -10 23
    endloop
  endfacet
  facet normal 1 0 -0
    outer loop
      vertex -17.5 -10 28
      vertex -17.5 -10 23
      vertex -17.5 -7 23
    endloop
  endfacet
  facet normal 1 0 0
    outer loop
      vertex -17.5 -7 28
      vertex -17.5 -10 28
      vertex -17.5 -7 23
    endloop
  endfacet
  facet normal -1 -0 0
    outer loop
      vertex -1.25 -10 23
      vertex -1.25 -10 28
      vertex -1.25 -7 23
    endloop
  endfacet
  facet normal -1 0 -0
    outer loop
      vertex -1.25 -7 23
      vertex -1.25 -10 28
      vertex -1.25 -7 28
    endloop
  endfacet
  facet normal -0 -0 -1
    outer loop
      vertex -17.5 -10 28
      vertex -17.5 -7 28
      vertex -1.25 -10 28
    endloop
  endfacet
  facet normal 0 0 -1
    outer loop
      vertex -1.25 -10 28
      vertex -17.5 -7 28
      vertex -1.25 -7 28
    endloop
  endfacet
  facet normal 0 -0 1
    outer loop
      vertex 1.25 -7 23
      vertex 1.25 -10 23
      vertex 17.5 -10 23
    endloop
  endfacet
  facet normal 0 0 1
    outer loop
      vertex 17.5 -7 23
      vertex 1.25 -7 23
      vertex 17.5 -10 23
    endloop
  endfacet
  facet normal 1 0 -0
    outer loop
      vertex 1.25 -10 28
      vertex 1.25 -10 23
      vertex 1.25 -7 23
    endloop
  endfacet
  facet normal 1 0 0
    outer loop
      vertex 1.25 -7 28
      vertex 1.25 -10 28
      vertex 1.25 -7 23
    endloop
  endfacet
  facet normal -1 -0 0
    outer loop
      vertex 17.5 -10 23
      vertex 17.5 -10 28
      vertex 17.5 -7 23
    endloop
  endfacet
  facet normal -1 0 -0
    outer loop
      vertex 17.5 -7 23
      vertex 17.5 -10 28
      vertex 17.5 -7 28
    endloop
  endfacet
  facet normal -0 -0 -1
    outer loop
      vertex 1.25 -10 28
      vertex 1.25 -7 28
      vertex 17.5 -10 28
    endloop
  endfacet
  facet normal 0 0 -1
    outer loop
      vertex 17.5 -10 28
      vertex 1.25 -7 28
      vertex 17.5 -7 28
    endloop
  endfacet
  facet normal -0 -1.22461e-016 -1
    outer loop
      vertex 17 -10 1.22461e-015
      vertex 17 -7 8.57224e-016
      vertex 20 -10 1.22461e-015
    endloop
  endfacet
  facet normal 0 -1.22461e-016 -1
    outer loop
      vertex 20 -10 1.22461e-015
      vertex 17 -7 8.57224e-016
      vertex 20 -7 8.57224e-016
    endloop
  endfacet
  facet normal -1 -0 0
    outer loop
      vertex 17 -10 1.22461e-015
      vertex 17 -10 12
      vertex 17 -7 8.57224e-016
    endloop
  endfacet
  facet normal -1 0 -0
    outer loop
      vertex 17 -7 8.57224e-016
      vertex 17 -10 12
      vertex 17 -7 12
    endloop
  endfacet
  facet normal 1 0 -0
    outer loop
      vertex -17 -10 12
      vertex -17 -10 1.22461e-015
      vertex -17 -7 8.57224e-016
    endloop
  endfacet
  facet normal 1 0 0
    outer loop
      vertex -17 -7 12
      vertex -17 -10 12
      vertex -17 -7 8.57224e-016
    endloop
  endfacet
  facet normal 0 1 -1.4803e-016
    outer loop
      vertex 17 -7 8.57224e-016
      vertex 17 -7 12
      vertex 20 -7 8.57224e-016
    endloop
  endfacet
  facet normal 0 1 -1.4803e-016
    outer loop
      vertex 20 -7 8.57224e-016
      vertex 17 -7 12
      vertex 20 -7 12
    endloop
  endfacet
  facet normal 0 -1 1.4803e-016
    outer loop
      vertex 17 7 12
      vertex 17 7 -8.57224e-016
      vertex 20 7 -8.57224e-016
    endloop
  endfacet
  facet normal 0 -1 1.4803e-016
    outer loop
      vertex 20 7 12
      vertex 17 7 12
      vertex 20 7 -8.57224e-016
    endloop
  endfacet
  facet normal -1 -0 0
    outer loop
      vertex 17 7 -8.57224e-016
      vertex 17 7 12
      vertex 17 10 -1.22461e-015
    endloop
  endfacet
  facet normal -1 0 -0
    outer loop
      vertex 17 10 -1.22461e-015
      vertex 17 7 12
      vertex 17 10 12
    endloop
  endfacet
  facet normal 1 0 -0
    outer loop
      vertex -17 7 12
      vertex -17 7 -8.57224e-016
      vertex -17 10 -1.22461e-015
    endloop
  endfacet
  facet normal 1 0 0
    outer loop
      vertex -17 10 12
      vertex -17 7 12
      vertex -17 10 -1.22461e-015
    endloop
  endfacet
  facet normal -0 -1.22461e-016 -1
    outer loop
      vertex 17 7 -8.57224e-016
      vertex 17 10 -1.22461e-015
      vertex 20 7 -8.57224e-016
    endloop
  endfacet
  facet normal 0 -1.22461e-016 -1
    outer loop
      vertex 20 7 -8.57224e-016
      vertex 17 10 -1.22461e-015
      vertex 20 10 -1.22461e-015
    endloop
  endfacet
endsolid OpenSCAD_Model
